<svg xmlns="http://www.w3.org/2000/svg" viewBox="-1825 -975 3650 1950" width="3650" height="1950" style="background-color: rgb(255, 255, 255);"><path d="M214.66425625626334,42.43056996975261L214.57247120751165,39.93001521728845L214.29712207482214,37.50653633259928zM200.75392332136795,40.82752782661071L201.1448772353719,42.43056996975261L214.66425625626334,42.43056996975261zM200.2873067274588,39.2805321130282L200.75392332136795,40.82752782661071L214.66425625626334,42.43056996975261zM214.66425625626334,42.43056996975261L214.29712207482214,37.50653633259928L213.19573155762941,32.89077609871895zM199.74501542651362,37.78958884257053L200.2873067274588,39.2805321130282L214.66425625626334,42.43056996975261zM199.12706144566326,36.35469801523769L199.74501542651362,37.78958884257053L214.66425625626334,42.43056996975261zM198.43343275777696,34.97585361746424L199.12706144566326,36.35469801523769L214.66425625626334,42.43056996975261zM153.14603843458173,12.844315283966882L150.2629412427216,14.292520145102811L147.5157656628912,15.963527604433613zM193.58927129631113,111.4175159390363L186.26907840209623,101.12664560189398L184.59876851635212,101.85530180486363zM176.9983254336439,21.20424762285924L178.59576293382986,21.40743397070831L193.02876490575915,12.690175575547679zM193.58927129631113,111.4175159390363L184.59876851635212,101.85530180486363L182.87241821461413,102.47185763175773zM146.68621836975782,109.22033672874807L154.92564186474934,98.04386797081492L153.02623017105043,96.49547410327612zM125.98116690594213,62.507856320762365L140.21308727791353,70.51607025312511L139.9293311807901,67.91672765499705zM139.9293311807901,67.91672765499705L139.75907812387257,65.24732401313705L125.98116690594213,62.507856320762365zM193.58927129631113,111.4175159390363L201.04398764859954,83.24653864909642L200.53322547106427,85.01213047187416zM159.32000066117376,10.616313356279681L156.16505874186288,11.618919034591226L153.14603843458173,12.844315283966882zM215.28221023711367,78.57192665739602L215.37048937723515,75.62367098099898L201.9520059566815,75.623670980999zM147.5157656628912,15.963527604433613L144.90451319848177,17.85733164839389L142.42918535288476,19.973938290549057zM142.42918535288476,19.973938290549057L140.0897761125347,22.313347530899108L137.88629149099702,24.875553355878612zM137.88629149099702,24.875553355878612L135.98477805618967,27.371904626125822L134.24861361571328,29.984558251274226zM134.24861361571328,29.984558251274226L132.6777981695681,32.7135142313238L131.27233171775393,35.558778579839974zM131.27233171775393,35.558778579839974L130.0322172670535,38.52034528325735L128.95744880390154,41.59822035514128zM128.95744880390154,41.59822035514128L128.0480293350806,44.79239778192642L127.30395886059074,48.10287756361275zM127.30395886059074,48.10287756361275L126.72523738043195,51.52966571376569L126.31186489460427,55.07275621881978zM126.31186489460427,55.07275621881978L126.06384140310763,58.73215509234049L125.98116690594213,62.507856320762365zM125.98116690594213,62.507856320762365L126.05963792089068,66.2527290061439L126.29505096573646,69.88690397958014zM126.29505096573646,69.88690397958014L126.68740303369664,73.41037823428846L127.23669713155402,76.82315177026881zM127.23669713155402,76.82315177026881L127.94293325930856,80.12522759430392L128.8061114169603,83.31660269961114zM128.8061114169603,83.31660269961114L129.82623160450916,86.39727708619031L131.0032908151725,89.36725225743295zM131.0032908151725,89.36725225743295L132.33729205573303,92.226528213339L133.82823532619068,94.97510345051705zM133.82823532619068,94.97510345051705L135.47612062654554,97.61298097574988L137.28094795679755,100.14015627886344zM137.28094795679755,100.14015627886344L139.43258361742733,102.75070891459902L141.71734157539154,105.13425622161849zM141.71734157539154,105.13425622161849L144.13522183069017,107.29079819992172L146.68621836975782,109.22033672874807zM146.68621836975782,109.22033672874807L149.37033720615986,110.92287049262995L152.18757533311364,112.39839967949133zM152.18757533311364,112.39839967949133L155.13793275061911,113.64692433631323L158.2214094586763,114.66844460403858zM158.2214094586763,114.66844460403858L161.4380084640679,115.46296034172435L164.78772375322853,116.0304715963517zM164.78772375322853,116.0304715963517L168.2705613397236,116.3709782739585L171.88652122355305,116.48448056246873zM171.88652122355305,116.48448056246873L174.85929721288227,116.40530915507458L177.75780867626256,116.16779530873998zM177.75780867626256,116.16779530873998L180.58205561369397,115.77193864761699L183.33202900482834,115.21773935962968zM183.33202900482834,115.21773935962968L186.0077408767965,114.5051974917589L188.60918521603304,113.63431299702373zM188.60918521603304,113.63431299702373L191.13636202253792,112.60508582844321L193.58927129631113,111.4175159390363zM193.58927129631113,111.4175159390363L195.9679130373528,110.07160351672704L198.2722872456628,108.56734846755329zM198.2722872456628,108.56734846755329L200.50239993480656,106.90475060359127L202.65823907765332,105.08381067653663zM202.65823907765332,105.08381067653663L204.6886713275782,103.12204357147445L206.5425392836947,101.0705946621605zM206.5425392836947,101.0705946621605L208.2198489595682,98.92946620368171L209.7206003551988,96.69865744434253zM209.7206003551988,96.69865744434253L211.04479347058646,94.37816688075148L212.19242830573103,91.96799601629996zM212.19242830573103,91.96799601629996L213.16350486063268,89.46814334759665L213.95801712172602,86.87861188142419zM213.95801712172602,86.87861188142419L214.57597711614184,84.19939710760863L215.0173728167492,81.43050203293254zM215.0173728167492,81.43050203293254L215.28221023711367,78.57192665739602L201.9520059566815,75.623670980999zM214.29712207482214,37.50653633259928L213.8382088581947,35.16012128855431L213.19573155762941,32.89077609871895zM213.19573155762941,32.89077609871895L212.3696901731262,30.698500763093193L211.3600786911197,28.58329528167701zM213.19573155762941,32.89077609871895L211.3600786911197,28.58329528167701L208.7901634752931,24.584093881473436zM208.7901634752931,24.584093881473436L205.48598591014942,20.893165884542874L201.4475520092543,17.510523318016105zM201.4475520092543,17.510523318016105L197.3586642946249,14.859334765762904L193.02876490575915,12.690175575547679zM193.02876490575915,12.690175575547679L188.4578478290918,11.003057774501263L183.64591306462268,9.797975349058216zM183.64591306462268,9.797975349058216L178.5929606123519,9.074928299218538L173.29899347906212,8.833904597851436zM173.29899347906212,8.833904597851436L166.03765234266723,9.279509794241223L159.32000066117376,10.616313356279681zM159.32000066117376,10.616313356279681L153.14603843458173,12.844315283966882L147.5157656628912,15.963527604433613zM147.5157656628912,15.963527604433613L142.42918535288476,19.973938290549057L137.88629149099702,24.875553355878612zM137.88629149099702,24.875553355878612L134.24861361571328,29.984558251274226L131.27233171775393,35.558778579839974zM131.27233171775393,35.558778579839974L128.95744880390154,41.59822035514128L127.30395886059074,48.10287756361275zM127.30395886059074,48.10287756361275L126.31186489460427,55.07275621881978L125.98116690594213,62.507856320762365zM125.98116690594213,62.507856320762365L126.29505096573646,69.88690397958014L127.23669713155402,76.82315177026881zM127.23669713155402,76.82315177026881L128.8061114169603,83.31660269961114L131.0032908151725,89.36725225743295zM131.0032908151725,89.36725225743295L133.82823532619068,94.97510345051705L137.28094795679755,100.14015627886344zM137.28094795679755,100.14015627886344L141.71734157539154,105.13425622161849L146.68621836975782,109.22033672874807zM146.68621836975782,109.22033672874807L152.18757533311364,112.39839967949133L158.2214094586763,114.66844460403858zM158.2214094586763,114.66844460403858L164.78772375322853,116.0304715963517L171.88652122355305,116.48448056246873zM171.88652122355305,116.48448056246873L177.75780867626256,116.16779530873998L183.33202900482834,115.21773935962968zM183.33202900482834,115.21773935962968L188.60918521603304,113.63431299702373L193.58927129631113,111.4175159390363zM193.58927129631113,111.4175159390363L198.2722872456628,108.56734846755329L202.65823907765332,105.08381067653663zM202.65823907765332,105.08381067653663L206.5425392836947,101.0705946621605L209.7206003551988,96.69865744434253zM209.7206003551988,96.69865744434253L212.19242830573103,91.96799601629996L213.95801712172602,86.87861188142419zM213.95801712172602,86.87861188142419L215.0173728167492,81.43050203293254L201.9520059566815,75.623670980999zM211.3600786911197,28.58329528167701L210.16690312517534,26.545159654470414L208.7901634752931,24.584093881473436zM214.66425625626334,42.43056996975261L213.19573155762941,32.89077609871895L208.7901634752931,24.584093881473436zM208.7901634752931,24.584093881473436L201.4475520092543,17.510523318016105L193.02876490575915,12.690175575547679zM193.02876490575915,12.690175575547679L183.64591306462268,9.797975349058216L173.29899347906212,8.833904597851436zM173.29899347906212,8.833904597851436L159.32000066117376,10.616313356279681L147.5157656628912,15.963527604433613zM147.5157656628912,15.963527604433613L137.88629149099702,24.875553355878612L131.27233171775393,35.558778579839974zM131.27233171775393,35.558778579839974L127.30395886059074,48.10287756361275L125.98116690594213,62.507856320762365zM125.98116690594213,62.507856320762365L127.23669713155402,76.82315177026881L131.0032908151725,89.36725225743295zM131.0032908151725,89.36725225743295L137.28094795679755,100.14015627886344L146.68621836975782,109.22033672874807zM146.68621836975782,109.22033672874807L158.2214094586763,114.66844460403858L171.88652122355305,116.48448056246873zM171.88652122355305,116.48448056246873L183.33202900482834,115.21773935962968L193.58927129631113,111.4175159390363zM193.58927129631113,111.4175159390363L202.65823907765332,105.08381067653663L209.7206003551988,96.69865744434253zM209.7206003551988,96.69865744434253L213.95801712172602,86.87861188142419L201.9520059566815,75.623670980999zM208.7901634752931,24.584093881473436L207.2298597414729,22.700097962686073L205.48598591014942,20.893165884542874zM214.66425625626334,42.43056996975261L208.7901634752931,24.584093881473436L193.02876490575915,12.690175575547679zM193.02876490575915,12.690175575547679L173.29899347906212,8.833904597851436L147.5157656628912,15.963527604433613zM147.5157656628912,15.963527604433613L131.27233171775393,35.558778579839974L125.98116690594213,62.507856320762365zM125.98116690594213,62.507856320762365L131.0032908151725,89.36725225743295L146.68621836975782,109.22033672874807zM146.68621836975782,109.22033672874807L171.88652122355305,116.48448056246873L193.58927129631113,111.4175159390363zM209.7206003551988,96.69865744434253L201.9520059566815,75.623670980999L201.89524992640446,77.61346355592788zM205.48598591014942,20.893165884542874L203.55855400845354,19.163309674174698L201.4475520092543,17.510523318016105zM209.7206003551988,96.69865744434253L201.89524992640446,77.61346355592788L201.7249998762696,79.54720669451464zM197.66414138998533,33.65306166281563L198.43343275777696,34.97585361746424L214.66425625626334,42.43056996975261zM209.7206003551988,96.69865744434253L201.7249998762696,79.54720669451464L201.44124377914616,81.42489738997662zM196.81918132872312,32.38632215129182L197.66414138998533,33.65306166281563L214.66425625626334,42.43056996975261zM209.7206003551988,96.69865744434253L201.44124377914616,81.42489738997662L201.04398764859954,83.24653864909642zM195.89855257399032,31.175629069327407L196.81918132872312,32.38632215129182L214.66425625626334,42.43056996975261zM193.58927129631113,111.4175159390363L209.7206003551988,96.69865744434253L201.04398764859954,83.24653864909642zM194.90225512578687,30.02099444405326L195.89855257399032,31.175629069327407L214.66425625626334,42.43056996975261zM201.4475520092543,17.510523318016105L199.4332361146105,16.12467311654774L197.3586642946249,14.859334765762904zM193.8302889841128,28.92240023477307L194.90225512578687,30.02099444405326L214.66425625626334,42.43056996975261zM193.58927129631113,111.4175159390363L200.53322547106427,85.01213047187416L199.90896326010574,86.72166985152705zM192.68265414896817,27.87986448218312L193.8302889841128,28.92240023477307L214.66425625626334,42.43056996975261zM193.58927129631113,111.4175159390363L199.90896326010574,86.72166985152705L199.171201015724,88.37515979483783zM191.45935062035292,26.8933751591526L192.68265414896817,27.87986448218312L214.66425625626334,42.43056996975261zM193.58927129631113,111.4175159390363L199.171201015724,88.37515979483783L198.3199327243537,89.9725972950238zM190.16458789404942,25.95873479702993L191.45935062035292,26.8933751591526L214.66425625626334,42.43056996975261zM193.58927129631113,111.4175159390363L198.3199327243537,89.9725972950238L197.35516439956018,91.51398686225903zM190.16458789404942,25.95873479702993L214.66425625626334,42.43056996975261L193.02876490575915,12.690175575547679zM193.58927129631113,111.4175159390363L197.35516439956018,91.51398686225903L196.27689002777794,92.9993239863694zM188.83619129644487,25.105361757768407L190.16458789404942,25.95873479702993L193.02876490575915,12.690175575547679zM193.58927129631113,111.4175159390363L196.27689002777794,92.9993239863694L195.08511562257254,94.42861167413767zM187.47416082753924,24.333268068498853L188.83619129644487,25.105361757768407L193.02876490575915,12.690175575547679zM193.58927129631113,111.4175159390363L195.08511562257254,94.42861167413767L193.77984118394397,95.80184842217247zM186.07850250089797,23.64244771565585L187.47416082753924,24.333268068498853L193.02876490575915,12.690175575547679zM193.58927129631113,111.4175159390363L193.77984118394397,95.80184842217247L192.38978750025865,97.09100951230273zM184.64921631652106,23.032894685674L186.07850250089797,23.64244771565585L193.02876490575915,12.690175575547679zM193.58927129631113,111.4175159390363L192.38978750025865,97.09100951230273L190.9436873870139,98.26807022635741zM183.18629626084305,22.5046210056841L184.64921631652106,23.032894685674L193.02876490575915,12.690175575547679zM193.58927129631113,111.4175159390363L190.9436873870139,98.26807022635741L189.44153483064437,99.33303056433651zM181.6897483474295,22.057620662120755L183.18629626084305,22.5046210056841L193.02876490575915,12.690175575547679zM193.58927129631113,111.4175159390363L189.44153483064437,99.33303056433651L187.88332983114995,100.28588902284872zM180.15957257628017,21.69188764141857L181.6897483474295,22.057620662120755L193.02876490575915,12.690175575547679zM193.58927129631113,111.4175159390363L187.88332983114995,100.28588902284872L186.26907840209623,101.12664560189398zM178.59576293382986,21.40743397070831L180.15957257628017,21.69188764141857L193.02876490575915,12.690175575547679zM197.3586642946249,14.859334765762904L195.22384256286296,13.714502252096207L193.02876490575915,12.690175575547679zM193.02876490575915,12.690175575547679L190.77343132331364,11.786360749682707L188.4578478290918,11.003057774501263zM188.4578478290918,11.003057774501263L186.0820084095281,10.340266650003354L183.64591306462268,9.797975349058216zM175.3672540621569,21.082340625002114L176.9983254336439,21.20424762285924L193.02876490575915,12.690175575547679zM193.58927129631113,111.4175159390363L182.87241821461413,102.47185763175773L181.0900094561859,102.97631157918485zM173.7025548329342,21.04170095000613L175.3672540621569,21.082340625002114L193.02876490575915,12.690175575547679zM193.58927129631113,111.4175159390363L181.0900094561859,102.97631157918485L179.25155426819822,103.36866515053642zM171.0429593162471,21.132084838018773L173.7025548329342,21.04170095000613L193.02876490575915,12.690175575547679zM146.68621836975782,109.22033672874807L193.58927129631113,111.4175159390363L179.25155426819822,103.36866515053642zM168.4786487433764,21.403230488491385L171.0429593162471,21.132084838018773L193.02876490575915,12.690175575547679zM146.68621836975782,109.22033672874807L179.25155426819822,103.36866515053642L177.35704663708574,103.64891759411671zM166.0096261211048,21.855137901423866L168.4786487433764,21.403230488491385L193.02876490575915,12.690175575547679zM146.68621836975782,109.22033672874807L177.35704663708574,103.64891759411671L175.40648956963116,103.81706966162143zM163.63588844264967,22.487807076816274L166.0096261211048,21.855137901423866L193.02876490575915,12.690175575547679zM146.68621836975782,109.22033672874807L175.40648956963116,103.81706966162143L173.39988306583447,103.87311984965923zM163.63588844264967,22.487807076816274L193.02876490575915,12.690175575547679L147.5157656628912,15.963527604433613zM146.68621836975782,109.22033672874807L173.39988306583447,103.87311984965923L170.7718166725572,103.78203763636415zM161.35743570801088,23.301238014668595L163.63588844264967,22.487807076816274L147.5157656628912,15.963527604433613zM146.68621836975782,109.22033672874807L170.7718166725572,103.78203763636415L168.23483174087943,103.5087917481744zM159.17426791718853,24.295430714980835L161.35743570801088,23.301238014668595L147.5157656628912,15.963527604433613zM146.68621836975782,109.22033672874807L168.23483174087943,103.5087917481744L165.78892827080108,103.05338143339445zM157.08638807696522,25.47039119131841L159.17426791718853,24.295430714980835L147.5157656628912,15.963527604433613zM146.68621836975782,109.22033672874807L165.78892827080108,103.05338143339445L163.43410626232222,102.41580669202426zM155.09379318055835,26.826113430115896L157.08638807696522,25.47039119131841L147.5157656628912,15.963527604433613zM146.68621836975782,109.22033672874807L163.43410626232222,102.41580669202426L161.17036571544278,101.59606827575945zM153.19648322796792,28.36259743137331L155.09379318055835,26.826113430115896L147.5157656628912,15.963527604433613zM146.68621836975782,109.22033672874807L161.17036571544278,101.59606827575945L158.99770963694556,100.59416543290439zM151.39446122597656,30.079843195090636L153.19648322796792,28.36259743137331L147.5157656628912,15.963527604433613zM146.68621836975782,109.22033672874807L158.99770963694556,100.59416543290439L156.9161350200477,99.41009891515478zM149.68772266441033,31.977856734833257L151.39446122597656,30.079843195090636L147.5157656628912,15.963527604433613zM146.68621836975782,109.22033672874807L156.9161350200477,99.41009891515478L154.92564186474934,98.04386797081492zM148.0762705500518,34.05662602347042L149.68772266441033,31.977856734833257L147.5157656628912,15.963527604433613zM183.64591306462268,9.797975349058216L181.1495617943755,9.376195898796583L178.5929606123519,9.074928299218538zM146.7387664076438,36.04221511618234L148.0762705500518,34.05662602347042L147.5157656628912,15.963527604433613zM146.68621836975782,109.22033672874807L153.02623017105043,96.49547410327612L151.21789993895095,94.76491430575575zM145.51756612352838,38.097868259408926L146.7387664076438,36.04221511618234L147.5157656628912,15.963527604433613zM146.68621836975782,109.22033672874807L151.21789993895095,94.76491430575575L149.50065417523362,92.85219158503645zM144.41266969770547,40.22357943958481L145.51756612352838,38.097868259408926L147.5157656628912,15.963527604433613zM146.68621836975782,109.22033672874807L149.50065417523362,92.85219158503645L147.8744883697244,90.75730443772694zM143.42408164034921,42.419360683840715L144.41266969770547,40.22357943958481L147.5157656628912,15.963527604433613zM125.98116690594213,62.507856320762365L146.68621836975782,109.22033672874807L147.8744883697244,90.75730443772694zM142.5517959378941,44.68519996504595L143.42408164034921,42.419360683840715L147.5157656628912,15.963527604433613zM125.98116690594213,62.507856320762365L147.8744883697244,90.75730443772694L146.56921393109582,88.78853077727419zM141.79581259034012,47.02110329676581L142.5517959378941,44.68519996504595L147.5157656628912,15.963527604433613zM125.98116690594213,62.507856320762365L146.56921393109582,88.78853077727419L145.37743802249904,86.74969306630678zM141.15613761125277,49.42707067900038L141.79581259034012,47.02110329676581L147.5157656628912,15.963527604433613zM125.98116690594213,62.507856320762365L145.37743802249904,86.74969306630678L144.29916966428223,84.64079581499871zM140.63276498706662,51.90310211174959L141.15613761125277,49.42707067900038L147.5157656628912,15.963527604433613zM125.98116690594213,62.507856320762365L144.29916966428223,84.64079581499871L143.33440133948872,82.46183150639332zM140.63276498706662,51.90310211174959L147.5157656628912,15.963527604433613L125.98116690594213,62.507856320762365zM125.98116690594213,62.507856320762365L143.33440133948872,82.46183150639332L142.4831330481184,80.21280615405593zM140.2257007313471,54.449197595013494L140.63276498706662,51.90310211174959L125.98116690594213,62.507856320762365zM125.98116690594213,62.507856320762365L142.4831330481184,80.21280615405593L141.74536779695396,77.89371675120385zM139.93493883052872,57.06535111522664L140.2257007313471,54.449197595013494L125.98116690594213,62.507856320762365zM125.98116690594213,62.507856320762365L141.74536779695396,77.89371675120385L141.12110558599545,75.50456329783714zM139.76047928461153,59.751574699519864L139.93493883052872,57.06535111522664L125.98116690594213,62.507856320762365zM125.98116690594213,62.507856320762365L141.12110558599545,75.50456329783714L140.6103464152429,73.04534880073847zM139.70232810716095,62.50785632076238L139.76047928461153,59.751574699519864L125.98116690594213,62.507856320762365zM125.98116690594213,62.507856320762365L140.6103464152429,73.04534880073847L140.21308727791353,70.51607025312511zM139.75907812387257,65.24732401313705L139.70232810716095,62.50785632076238L125.98116690594213,62.507856320762365zM178.5929606123519,9.074928299218538L175.97610350498655,8.89416052319322L173.29899347906212,8.833904597851436zM173.29899347906212,8.833904597851436L169.60035909806714,8.945299883383473L166.03765234266723,9.279509794241223zM166.03765234266723,9.279509794241223L162.6108641925143,9.836510276163004L159.32000066117376,10.616313356279681z" style="fill:rgb(0,0,0)"/><path d="M0.000009221786627203881,-701.8258351215982L152.9456785905871,93.11108314219325M152.9456785905871,93.11108314219325L523.212952779998,345.5776774928266M152.9456785905871,93.11108314219325L-641.6642646630474,234.9366202576105" style="fill:none;stroke:rgb(0,0,0);stroke-width:5;stroke-linecap:round"/><path d="M53.28164097990295,118.65888792897084h14.99151143808679v14.991511438086691h-14.99151143808679zM65.83341194204847,143.49075957451203h15.131478417636224v15.131478417636236h-15.131478417636224zM85.44431614867071,121.220774160658h15.315146325685685v15.315146325685618h-15.315146325685685zM27.709559460481046,74.64396483520254h15.321556358045743v15.321556358045745h-15.321556358045743zM1.0736643221727764,87.04365400536761h15.371806680137716v15.371806680137691h-15.371806680137716zM0.7393089173593959,91.62816778169672h15.48319226423851v15.483192264238527h-15.48319226423851zM63.85450842204277,103.85990757357787h15.508122438859594v15.50812243885957h-15.508122438859594zM21.900745995738724,95.28217207195424h15.523727559995947v15.523727559995885h-15.523727559995947zM68.5533103671658,105.63756863467725h15.583134996582803v15.583134996582828h-15.583134996582803zM-25.64363739464732,81.16654512306808h15.592589827344689v15.59258982734466h-15.592589827344689zM28.47880453366517,29.647847960308102h15.686656577073679v15.686656577073668h-15.686656577073679zM-29.90913375554875,47.33222359004074h15.721382248341339v15.721382248341342h-15.721382248341339zM3.8574021469069493,19.803615166194184h15.731426721366727v15.731426721366724h-15.731426721366727zM74.92201931198817,102.6622615897841h15.811321106615825v15.81132110661579h-15.811321106615825zM-11.005817312856328,72.99878689453422h15.857556302401665v15.857556302401658h-15.857556302401665zM75.86469977274625,66.7488313853303h15.861747065280907v15.861747065280905h-15.861747065280907zM22.019489380982947,65.83305976130065h15.965138468082792v15.965138468082829h-15.965138468082792zM-9.987863606186572,41.89484638587801h15.983170715075289v15.98317071507531h-15.983170715075289zM-57.62900483738907,-13.658622808504973h16.0349353577394v16.034935357739375h-16.0349353577394zM51.12712397384692,27.780629775912892h16.047344352619078v16.047344352619138h-16.047344352619078zM8.333685427965865,43.79546361947728h16.068183808854805v16.0681838088548h-16.068183808854805zM-54.54629517451846,7.519909040753523h16.12530561123014v16.12530561123015h-16.12530561123014zM-73.2194508844866,-17.945333606947518h16.14225091233987v16.14225091233987h-16.14225091233987zM-87.5106963501621,9.752355004227129h16.18256527322778v16.18256527322779h-16.18256527322778zM-86.8944907424491,-14.913095196587333h16.213965431140334v16.213965431140313h-16.213965431140334zM-173.15517055068608,28.58832981473504h16.290224017862023v16.29022401786207h-16.290224017862023zM-75.91980871700811,-27.08350041427584h16.303051257832802v16.303051257832845h-16.303051257832802zM-116.19428581963562,-33.72072944335438h16.32956755503735v16.329567555037364h-16.32956755503735zM-143.08501373416246,-50.17158085948708h16.578625762182888v16.578625762182817h-16.578625762182888zM-158.645987505983,-85.93744804842096h16.595827488588082v16.595827488587947h-16.595827488588082zM-221.16162874689215,-87.90886858491812h16.767242318981666v16.767242318981523h-16.767242318981666z" style="fill:rgb(0,0,0)"/><path d="M0.000009221786627203881,-701.8258351215982L-641.6642646630474,234.9366202576105M523.212952779998,345.5776774928266L-641.6642646630474,234.9366202576105M0.000009221786627203881,-701.8258351215982L523.212952779998,345.5776774928266" style="fill:none;stroke:rgb(0,0,0);stroke-width:5;stroke-linecap:round"/><path d="M-691.5101077015327,142.99759323991205L-802.384280425681,142.99759323991205L-802.3842804256811,159.97832469459155zM-691.5101077015327,142.99759323991205L-802.3842804256811,159.97832469459155L-756.864510441621,159.97832469459155zM-756.864510441621,159.97832469459155L-737.0298776855925,287.5478336401064L-737.0298776855924,159.97832469459155zM-737.0298776855924,159.97832469459155L-691.5101077015327,142.99759323991205L-756.864510441621,159.97832469459155zM-737.0298776855924,159.97832469459155L-691.5101077015327,159.97832469459155L-691.5101077015327,142.99759323991205zM-756.864510441621,159.97832469459155L-756.864510441621,287.5478336401063L-737.0298776855925,287.5478336401064zM-11.044791896598936,-965.7944182392632L-64.88643637202094,-820.7370024484974L-22.93004527674567,-881.0224633678955zM-22.93004527674567,-881.0224633678955L-64.88643637202094,-820.7370024484974L-44.5526203349962,-820.7370024484974zM64.84902251262103,-820.7370024484975L10.864175477780451,-965.7944182392632L-11.044791896598936,-965.7944182392632zM-11.044791896598936,-965.7944182392632L-22.93004527674567,-881.0224633678955L-0.16190522154910522,-944.8878175699809zM-22.93004527674567,-881.0224633678955L-44.5526203349962,-820.7370024484974L-28.94427538031303,-864.1253508568478zM64.84902251262103,-820.7370024484975L-11.044791896598936,-965.7944182392632L-0.16190522154910522,-944.8878175699809zM22.463045076937156,-881.0224633678955L-22.93004527674567,-881.0224633678955L-28.94427538031303,-864.1253508568478zM64.84902251262103,-820.7370024484975L-0.16190522154910522,-944.8878175699809L22.463045076937156,-881.0224633678955zM22.463045076937156,-881.0224633678955L-28.94427538031303,-864.1253508568478L27.904486280677357,-864.1253508568478zM27.904486280677357,-864.1253508568478L64.84902251262103,-820.7370024484975L22.463045076937156,-881.0224633678955zM27.904486280677357,-864.1253508568478L43.36963721108079,-820.7370024484974L64.84902251262103,-820.7370024484975zM696.2719469534054,433.7874126782379L712.1044535710399,433.7874126782379L712.1044535710398,336.12395391863663zM712.1044535710398,336.12395391863663L633.1198009487605,336.1239539186366L633.1198009487606,356.40380088496545zM684.7904075588997,304.8036105942107L685.5983449611173,307.6610223413815L709.2581540513519,307.6610223413815zM709.2581540513519,307.6610223413815L708.6750590000672,303.1420356939247L707.8152503985683,298.77623449536804zM707.8152503985683,298.77623449536804L706.6787070403142,294.5636187457113L705.2654395285755,290.50419904822513zM705.2654395285755,290.50419904822513L703.5754584666225,286.59795419636845L701.6087426479144,282.8448947934118zM701.6087426479144,282.8448947934118L699.3653132789922,279.2450314426258L696.8451597565852,275.7983429374693zM696.8451597565852,275.7983429374693L694.0482820806935,272.5048504844833L690.9746802513172,269.36453287712675zM690.9746802513172,269.36453287712675L687.6243542684562,266.3774113219409L683.9973041321105,263.5434646123845zM683.9973041321105,263.5434646123845L680.5024343658062,261.0999091160628L676.8963893083192,258.8688219540014zM676.8963893083192,258.8688219540014L673.1791583563789,256.8502349360118L669.3507521132559,255.04411625228263zM669.3507521132559,255.04411625228263L665.4111493724092,253.4504871093547L661.3603713403797,252.06934750722806zM661.3603713403797,252.06934750722806L657.1984074138971,250.9006762393618L652.9252575929612,249.94451571883786zM652.9252575929612,249.94451571883786L648.5409324808426,249.20082353257425L644.0454214742708,248.66959968057094zM644.0454214742708,248.66959968057094L639.4387245732457,248.35088657590993L634.7208417777674,248.24464180550927zM634.7208417777674,248.24464180550927L628.1054348052227,248.44476793290866L621.7198007043927,249.04516752164793zM621.7198007043927,249.04516752164793L615.5639500785481,250.04581936518596L609.6378776260534,251.4467234635228zM609.6378776260534,251.4467234635228L603.9415833469088,253.24787981665852L598.4750672411145,255.449309631134zM598.4750672411145,255.449309631134L593.2383346103053,258.05101290694927L588.2313775020284,261.0529578342929zM588.2313775020284,261.0529578342929L583.4541985671018,264.4551762229763L578.9068004563428,268.25764686645863zM578.9068004563428,268.25764686645863L574.5891805189337,272.4603697647397L570.501338754875,277.0633661243606zM570.501338754875,277.0633661243606L566.9496460619661,281.6119995161327L563.7068001305188,286.3632295973306zM563.7068001305188,286.3632295973306L560.772795658898,291.3170669712246L558.1476326471036,296.4735010345444zM558.1476326471036,296.4735010345444L555.8313110951354,301.8325423905603L553.8238363046288,307.394180436002zM553.8238363046288,307.394180436002L552.1252029739487,313.15841517086926L550.7354111030949,319.12525719843285zM550.7354111030949,319.12525719843285L549.6544606920673,325.294695915422L548.8823517408663,331.6667419251074zM548.8823517408663,331.6667419251074L548.4190895511267,338.2413846242185L548.2646688212135,345.01862401275525zM548.2646688212135,345.01862401275525L548.4203248321398,351.3140719963554L548.8872981665539,357.45139340700285zM548.8872981665539,357.45139340700285L549.6655782211856,363.4305882446978L550.7551755993052,369.2516565094402zM550.7551755993052,369.2516565094402L552.1560849992771,374.9145928995946L553.8683117227372,380.4194027167965zM553.8683117227372,380.4194027167965L555.8918451664147,385.76608596104575L558.2266959335799,390.9546452831601zM558.2266959335799,390.9546452831601L560.8728587225977,395.98507273068645L563.8303388351036,400.857376256078zM563.8303388351036,400.857376256078L567.099130969462,405.57155055769914L570.6792298240376,410.12759563555016zM570.6792298240376,410.12759563555016L574.7188956285842,414.70217257941596L578.9512758744511,418.87896120346517zM578.9512758744511,418.87896120346517L583.3763705616386,422.6579588568801L587.9941849917819,426.0391688531829zM587.9941849917819,426.0391688531829L592.8047191648811,429.0225885415558L597.8079677793008,431.60821908173165zM597.8079677793008,431.60821908173165L603.0039361366764,433.7960602717927L608.3926242370077,435.5861122204637zM608.3926242370077,435.5861122204637L613.9740267786595,436.9783748190199L619.7481490632673,437.9728482693791zM619.7481490632673,437.9728482693791L625.7149910908308,438.56953207451267L631.8745475597149,438.7684268971255zM631.8745475597149,438.7684268971255L634.766552476889,438.715305837334L637.6313759101386,438.55594298931163zM637.6313759101386,438.55594298931163L640.4690231610992,438.29033835305836L643.2794836265001,437.91849192857444zM643.2794836265001,437.91849192857444L646.0627785128825,437.4404033845073L648.8188866137052,436.85607305220947zM648.8188866137052,436.85607305220947L651.5478185322388,436.16550093168064L654.2495742684833,435.36868702292105zM654.2495742684833,435.36868702292105L656.9241538224387,434.46563111883563L659.571557194105,433.4563333643908zM659.571557194105,433.4563333643908L662.1917737802116,432.340793738877L664.7848141840293,431.1190123458419zM664.7848141840293,431.1190123458419L667.3025077476805,429.8008719097095L669.7559454921073,428.39625567264125zM669.7559454921073,428.39625567264125L672.1451592271212,426.90516313760924L674.4701277461813,425.32759529866973zM674.4701277461813,425.32759529866973L676.7308510492877,423.6635511617663L678.9273397397105,421.9130313896034zM678.9273397397105,421.9130313896034L681.05959381745,420.076034656772L683.1276026792359,418.15256295138556zM683.1276026792359,418.15256295138556L685.1313769283382,416.14261494803503L687.0709059614869,414.04619064672056zM687.0709059614869,414.04619064672056L688.9462003819519,411.8632913728511L690.7572495864632,409.5939144756088zM690.7572495864632,409.5939144756088L696.2719469534054,433.7874126782379L712.1044535710398,336.12395391863663zM712.1044535710398,336.12395391863663L633.1198009487606,356.40380088496545L689.8677836373785,356.40380088496545zM683.8490598072631,302.04255076606495L684.7904075588997,304.8036105942107L709.2581540513519,307.6610223413815zM709.2581540513519,307.6610223413815L707.8152503985683,298.77623449536804L705.2654395285755,290.50419904822513zM705.2654395285755,290.50419904822513L701.6087426479144,282.8448947934118L696.8451597565852,275.7983429374693zM696.8451597565852,275.7983429374693L690.9746802513172,269.36453287712675L683.9973041321105,263.5434646123845zM683.9973041321105,263.5434646123845L676.8963893083192,258.8688219540014L669.3507521132559,255.04411625228263zM669.3507521132559,255.04411625228263L661.3603713403797,252.06934750722806L652.9252575929612,249.94451571883786zM652.9252575929612,249.94451571883786L644.0454214742708,248.66959968057094L634.7208417777674,248.24464180550927zM634.7208417777674,248.24464180550927L621.7198007043927,249.04516752164793L609.6378776260534,251.4467234635228zM548.2646688212135,345.01862401275525L573.9504925204225,353.1473668623737L573.6317688124909,348.42948406689544zM588.2313775020284,261.0529578342929L578.9068004563428,268.25764686645863L570.501338754875,277.0633661243606zM570.501338754875,277.0633661243606L563.7068001305188,286.3632295973306L558.1476326471036,296.4735010345444zM558.1476326471036,296.4735010345444L553.8238363046288,307.394180436002L550.7354111030949,319.12525719843285zM550.7354111030949,319.12525719843285L548.8823517408663,331.6667419251074L548.2646688212135,345.01862401275525zM548.2646688212135,345.01862401275525L548.8872981665539,357.45139340700285L550.7551755993052,369.2516565094402zM550.7551755993052,369.2516565094402L553.8683117227372,380.4194027167965L558.2266959335799,390.9546452831601zM558.2266959335799,390.9546452831601L563.8303388351036,400.857376256078L570.6792298240376,410.12759563555016zM570.6792298240376,410.12759563555016L578.9512758744511,418.87896120346517L587.9941849917819,426.0391688531829zM587.9941849917819,426.0391688531829L597.8079677793008,431.60821908173165L608.3926242370077,435.5861122204637zM608.3926242370077,435.5861122204637L619.7481490632673,437.9728482693791L631.8745475597149,438.7684268971255zM631.8745475597149,438.7684268971255L637.6313759101386,438.55594298931163L643.2794836265001,437.91849192857444zM643.2794836265001,437.91849192857444L648.8188866137052,436.85607305220947L654.2495742684833,435.36868702292105zM654.2495742684833,435.36868702292105L659.571557194105,433.4563333643908L664.7848141840293,431.1190123458419zM664.7848141840293,431.1190123458419L669.7559454921073,428.39625567264125L674.4701277461813,425.32759529866973zM674.4701277461813,425.32759529866973L678.9273397397105,421.9130313896034L683.1276026792359,418.15256295138556zM683.1276026792359,418.15256295138556L687.0709059614869,414.04619064672056L690.7572495864632,409.5939144756088zM690.7572495864632,409.5939144756088L712.1044535710398,336.12395391863663L689.8677836373785,356.40380088496545zM573.6317688124909,348.42948406689544L573.5255293437256,343.5954742529113L548.2646688212135,345.01862401275525zM709.2581540513519,307.6610223413815L705.2654395285755,290.50419904822513L696.8451597565852,275.7983429374693zM696.8451597565852,275.7983429374693L683.9973041321105,263.5434646123845L669.3507521132559,255.04411625228263zM669.3507521132559,255.04411625228263L652.9252575929612,249.94451571883786L634.7208417777674,248.24464180550927zM634.7208417777674,248.24464180550927L609.6378776260534,251.4467234635228L588.2313775020284,261.0529578342929zM588.2313775020284,261.0529578342929L570.501338754875,277.0633661243606L558.1476326471036,296.4735010345444zM558.1476326471036,296.4735010345444L550.7354111030949,319.12525719843285L548.2646688212135,345.01862401275525zM548.2646688212135,345.01862401275525L550.7551755993052,369.2516565094402L558.2266959335799,390.9546452831601zM558.2266959335799,390.9546452831601L570.6792298240376,410.12759563555016L587.9941849917819,426.0391688531829zM587.9941849917819,426.0391688531829L608.3926242370077,435.5861122204637L631.8745475597149,438.7684268971255zM631.8745475597149,438.7684268971255L643.2794836265001,437.91849192857444L654.2495742684833,435.36868702292105zM654.2495742684833,435.36868702292105L664.7848141840293,431.1190123458419L674.4701277461813,425.32759529866973zM674.4701277461813,425.32759529866973L683.1276026792359,418.15256295138556L690.7572495864632,409.5939144756088zM690.7572495864632,409.5939144756088L689.8677836373785,356.40380088496545L689.7640094290042,360.613946072596zM681.5660908426497,296.80952927993036L682.7742804996659,299.3778640634851L709.2581540513519,307.6610223413815zM709.2581540513519,307.6610223413815L696.8451597565852,275.7983429374693L669.3507521132559,255.04411625228263zM669.3507521132559,255.04411625228263L634.7208417777674,248.24464180550927L588.2313775020284,261.0529578342929zM588.2313775020284,261.0529578342929L558.1476326471036,296.4735010345444L548.2646688212135,345.01862401275525zM548.2646688212135,345.01862401275525L558.2266959335799,390.9546452831601L587.9941849917819,426.0391688531829zM587.9941849917819,426.0391688531829L631.8745475597149,438.7684268971255L654.2495742684833,435.36868702292105zM654.2495742684833,435.36868702292105L674.4701277461813,425.32759529866973L690.7572495864632,409.5939144756088zM690.7572495864632,409.5939144756088L689.7640094290042,360.613946072596L689.4526974071515,364.7054936796942zM680.2244802329436,294.33754641540065L681.5660908426497,296.80952927993036L709.2581540513519,307.6610223413815zM587.9941849917819,426.0391688531829L654.2495742684833,435.36868702292105L690.7572495864632,409.5939144756088zM690.7572495864632,409.5939144756088L689.4526974071515,364.7054936796942L688.9338475718205,368.6784437062605zM678.7494486705478,291.96193667643695L680.2244802329436,294.33754641540065L709.2581540513519,307.6610223413815zM690.7572495864632,409.5939144756088L688.9338475718205,368.6784437062605L688.2074493197409,372.53280145393zM677.1409961554622,289.68266825322786L678.7494486705478,291.96193667643695L709.2581540513519,307.6610223413815zM690.7572495864632,409.5939144756088L688.2074493197409,372.53280145393L687.2735026509125,376.26856162106736zM675.3991226876867,287.4997729555848L677.1409961554622,289.68266825322786L709.2581540513519,307.6610223413815zM690.7572495864632,409.5939144756088L687.2735026509125,376.26856162106736L686.1320181686058,379.8857242076726zM673.5238282672216,285.4132295769666L675.3991226876867,287.4997729555848L709.2581540513519,307.6610223413815zM690.7572495864632,409.5939144756088L686.1320181686058,379.8857242076726L684.7829958728211,383.3842945153811zM671.5151128940666,283.4230487206441L673.5238282672216,285.4132295769666L709.2581540513519,307.6610223413815zM690.7572495864632,409.5939144756088L684.7829958728211,383.3842945153811L683.2264357635578,386.76426724255754zM669.3729871714926,281.52923038661703L671.5151128940666,283.4230487206441L709.2581540513519,307.6610223413815zM690.7572495864632,409.5939144756088L683.2264357635578,386.76426724255754L681.4623166342752,390.0256450400195zM667.0974298929578,279.73176397161507L669.3729871714926,281.52923038661703L709.2581540513519,307.6610223413815zM690.7572495864632,409.5939144756088L681.4623166342752,390.0256450400195L679.4906702947852,393.16842790776695zM664.7255206953985,278.02694893423387L667.0974298929578,279.73176397161507L709.2581540513519,307.6610223413815zM690.7572495864632,409.5939144756088L679.4906702947852,393.16842790776695L677.3114755385462,396.19261584580005zM664.7255206953985,278.02694893423387L709.2581540513519,307.6610223413815L669.3507521132559,255.04411625228263zM690.7572495864632,409.5939144756088L677.3114755385462,396.19261584580005L674.924742968829,399.0982088541186zM662.2943074059377,276.4703888249707L664.7255206953985,278.02694893423387L669.3507521132559,255.04411625228263zM690.7572495864632,409.5939144756088L674.924742968829,399.0982088541186L672.2773395971626,401.96797341142087zM659.803800627846,275.06206243728445L662.2943074059377,276.4703888249707L669.3507521132559,255.04411625228263zM690.7572495864632,409.5939144756088L672.2773395971626,401.96797341142087L669.4940553140508,404.5881952991628zM657.2540003611238,273.8019803744458L659.803800627846,275.06206243728445L669.3507521132559,255.04411625228263zM690.7572495864632,409.5939144756088L669.4940553140508,404.5881952991628L666.5748689129524,406.95886921570917zM654.6448960025,272.69015323972496L657.2540003611238,273.8019803744458L669.3507521132559,255.04411625228263zM690.7572495864632,409.5939144756088L666.5748689129524,406.95886921570917L663.5198016004084,409.0800004626951zM651.9764981552455,271.7265598265812L654.6448960025,272.69015323972496L669.3507521132559,255.04411625228263zM690.7572495864632,409.5939144756088L663.5198016004084,409.0800004626951L660.3288427731484,410.95158904012095zM649.2487962160899,270.9112213415554L651.9764981552455,271.7265598265812L669.3507521132559,255.04411625228263zM690.7572495864632,409.5939144756088L660.3288427731484,410.95158904012095L657.001981827902,412.57362964635115zM646.4618007883034,270.24411657810657L649.2487962160899,270.9112213415554L669.3507521132559,255.04411625228263zM690.7572495864632,409.5939144756088L657.001981827902,412.57362964635115L653.5392399712098,413.9461262576121zM643.615511871886,269.7252667427756L646.4618007883034,270.24411657810657L669.3507521132559,255.04411625228263zM690.7572495864632,409.5939144756088L653.5392399712098,413.9461262576121L649.9406065998016,415.0690775484952zM640.7099188635675,269.35465062902165L643.615511871886,269.7252667427756L669.3507521132559,255.04411625228263zM690.7572495864632,409.5939144756088L649.9406065998016,415.0690775484952L646.2060817136773,415.94248484440925zM637.745032366618,269.1322788401152L640.7099188635675,269.35465062902165L669.3507521132559,255.04411625228263zM587.9941849917819,426.0391688531829L690.7572495864632,409.5939144756088L646.2060817136773,415.94248484440925zM634.7208417777674,269.05816197932677L637.745032366618,269.1322788401152L669.3507521132559,255.04411625228263zM587.9941849917819,426.0391688531829L646.2060817136773,415.94248484440925L642.335665312837,416.56634681994524zM629.9449007746714,269.219999696954L634.7208417777674,269.05816197932677L669.3507521132559,255.04411625228263zM587.9941849917819,426.0391688531829L642.335665312837,416.56634681994524L638.3293573972807,416.9406648005122zM625.3419097166859,269.7054916432949L629.9449007746714,269.219999696954L669.3507521132559,255.04411625228263zM587.9941849917819,426.0391688531829L638.3293573972807,416.9406648005122L634.1871632686436,417.0654374607012zM620.9118686038105,270.5146590248902L625.3419097166859,269.7054916432949L669.3507521132559,255.04411625228263zM587.9941849917819,426.0391688531829L634.1871632686436,417.0654374607012L629.5236381393786,416.90483900031336zM616.6547827376806,271.6475018417401L620.9118686038105,270.5146590248902L669.3507521132559,255.04411625228263zM587.9941849917819,426.0391688531829L629.5236381393786,416.90483900031336L625.0207101450928,416.42304361915035zM616.6547827376806,271.6475018417401L669.3507521132559,255.04411625228263L588.2313775020284,261.0529578342929zM587.9941849917819,426.0391688531829L625.0207101450928,416.42304361915035L620.6783845874211,415.62005396802954zM612.5706468166611,273.10399888730365L616.6547827376806,271.6475018417401L588.2313775020284,261.0529578342929zM587.9941849917819,426.0391688531829L620.6783845874211,415.62005396802954L616.496656164728,414.4958660707244zM608.6594661423871,274.88417136812166L612.5706468166611,273.10399888730365L588.2313775020284,261.0529578342929zM587.9941849917819,426.0391688531829L616.496656164728,414.4958660707244L612.475524877014,413.0504825780529zM604.9212354132236,276.9880086809237L608.6594661423871,274.88417136812166L588.2313775020284,261.0529578342929zM587.9941849917819,426.0391688531829L612.475524877014,413.0504825780529L608.6149907242789,411.2839034900146zM601.3559546291702,279.4155108257098L604.9212354132236,276.9880086809237L588.2313775020284,261.0529578342929zM587.9941849917819,426.0391688531829L608.6149907242789,411.2839034900146L604.9150537065226,409.19612748120085zM597.9636237902272,282.16667780247997L601.3559546291702,279.4155108257098L588.2313775020284,261.0529578342929zM587.9941849917819,426.0391688531829L604.9150537065226,409.19612748120085L601.3757191253804,406.787154551612zM594.7442481980296,285.2415202145047L597.9636237902272,282.16667780247997L588.2313775020284,261.0529578342929zM587.9941849917819,426.0391688531829L601.3757191253804,406.787154551612L597.9969816792172,404.05698470124753zM591.6978278525777,288.640016855243L594.7442481980296,285.2415202145047L588.2313775020284,261.0529578342929zM587.9941849917819,426.0391688531829L597.9969816792172,404.05698470124753L594.7788413680328,401.0056205809255zM588.8243548014184,292.36218893123583L591.6978278525777,288.640016855243L588.2313775020284,261.0529578342929zM587.9941849917819,426.0391688531829L594.7788413680328,401.0056205809255L591.7212981918274,397.6330568890102zM586.3807913526439,295.9250044548981L588.8243548014184,292.36218893123583L588.2313775020284,261.0529578342929zM548.2646688212135,345.01862401275525L587.9941849917819,426.0391688531829L591.7212981918274,397.6330568890102zM584.1497094922177,299.6162892039271L586.3807913526439,295.9250044548981L588.2313775020284,261.0529578342929zM548.2646688212135,345.01862401275525L591.7212981918274,397.6330568890102L588.8243548014184,393.9392989271374zM582.1311171725928,303.4360537815934L584.1497094922177,299.6162892039271L588.2313775020284,261.0529578342929zM548.2646688212135,345.01862401275525L588.8243548014184,393.9392989271374L586.3807913526439,390.38266776099357zM580.3250037904988,307.38429818789683L582.1311171725928,303.4360537815934L588.2313775020284,261.0529578342929zM548.2646688212135,345.01862401275525L586.3807913526439,390.38266776099357L584.1497094922177,386.70990957634405zM578.7313746475709,311.46102242283746L580.3250037904988,307.38429818789683L588.2313775020284,261.0529578342929zM548.2646688212135,345.01862401275525L584.1497094922177,386.70990957634405L582.1311171725928,382.9210323256416zM577.3502350454444,315.6662264864154L578.7313746475709,311.46102242283746L588.2313775020284,261.0529578342929zM548.2646688212135,345.01862401275525L582.1311171725928,382.9210323256416L580.3250037904988,379.0160227547981zM576.1815743808486,319.99989977535995L577.3502350454444,315.6662264864154L588.2313775020284,261.0529578342929zM548.2646688212135,345.01862401275525L580.3250037904988,379.0160227547981L578.7313746475709,374.99489146708413zM575.2253926537837,324.4620634962122L576.1815743808486,319.99989977535995L588.2313775020284,261.0529578342929zM548.2646688212135,345.01862401275525L578.7313746475709,374.99489146708413L577.3502350454444,370.85763846249944zM575.2253926537837,324.4620634962122L588.2313775020284,261.0529578342929L548.2646688212135,345.01862401275525zM548.2646688212135,345.01862401275525L577.3502350454444,370.85763846249944L576.1815743808486,366.60425843940914zM574.48170046752,329.0526964424311L575.2253926537837,324.4620634962122L548.2646688212135,345.01862401275525zM548.2646688212135,345.01862401275525L576.1815743808486,366.60425843940914L575.2253926537837,362.23475139781294zM573.9504925204225,333.77180921728734L574.48170046752,329.0526964424311L548.2646688212135,345.01862401275525zM548.2646688212135,345.01862401275525L575.2253926537837,362.23475139781294L574.48170046752,357.74911733771097zM573.6317688124909,338.6194018207808L573.9504925204225,333.77180921728734L548.2646688212135,345.01862401275525zM548.2646688212135,345.01862401275525L574.48170046752,357.74911733771097L573.9504925204225,353.1473668623737zM573.5255293437256,343.5954742529113L573.6317688124909,338.6194018207808L548.2646688212135,345.01862401275525zM682.7742804996659,299.3778640634851L683.8490598072631,302.04255076606495L709.2581540513519,307.6610223413815zM609.6378776260534,251.4467234635228L598.4750672411145,255.449309631134L588.2313775020284,261.0529578342929z" style="fill:rgb(0,0,0)"/></svg>